<?xml version="1.0" encoding="UTF-8"?><svg xmlns="http://www.w3.org/2000/svg" width="297mm" height="210mm" viewBox="0 0 297 210"><defs>
 <marker id="arr" markerWidth="7" markerHeight="7" refX="6" refY="3.5" orient="auto"><path d="M0,0 L7,3.5 L0,7 z" fill="#176b87"/></marker>
 <style>.title{font:700 7px 'DejaVu Sans',Arial,sans-serif;fill:#172126}.sub{font:3.4px 'DejaVu Sans',Arial,sans-serif;fill:#52616a}.h{font:700 4.4px 'DejaVu Sans',Arial,sans-serif;fill:#172126}.t{font:3.1px 'DejaVu Sans',Arial,sans-serif;fill:#172126}.small{font:2.8px 'DejaVu Sans',Arial,sans-serif;fill:#52616a}.dim{font:700 3px 'DejaVu Sans',Arial,sans-serif;fill:#176b87}.petg{fill:#ee8a3d;stroke:#98521f;stroke-width:.7}.tpu95{fill:#929ca3;stroke:#4f5a61;stroke-width:.6}.tpu85{fill:#c2c9ce;stroke:#667178;stroke-width:.6}.metal{fill:#606c73;stroke:#222b30;stroke-width:.6}.board{fill:#369662;stroke:#1c5f3d;stroke-width:.6}.window{fill:#92cceb;stroke:#316b8a;stroke-width:.5}.membrane{fill:#d9e6eb;stroke:#647a84;stroke-width:.5}.air{fill:none;stroke:#176b87;stroke-width:.7;stroke-dasharray:2 1}.arrow{fill:none;stroke:#176b87;stroke-width:.8;marker-end:url(#arr)}.note{fill:#fff;stroke:#c7d1d5;stroke-width:.45}.cut{fill:#fff6ef;stroke:#bd6b31;stroke-width:.55}</style>
</defs><rect width="297" height="210" fill="#f5f6f7"/>
<text x="148.5" y="10" text-anchor="middle" class="title">Световой тоннель и крепление VEML7700 v0.7.3</text><text x="148.5" y="16" text-anchor="middle" class="sub">тоннель вставляется изнутри наружу; одна утолщённая шайба остаётся внутри электронного бокса</text>
<text x="68" y="28" text-anchor="middle" class="h">A. Сечение тоннеля</text><rect x="18" y="32" width="101" height="122" rx="4" class="note"/>
<rect x="55" y="58" width="30" height="13" class="petg"/><rect x="64.5" y="35" width="11" height="38" class="petg"/><rect x="62" y="69" width="16" height="3" class="petg"/>
<rect x="66" y="34" width="8" height="2" class="window"/><rect x="65" y="36" width="10" height="1.5" class="tpu85"/><rect x="65" y="38" width="10" height="2" class="petg"/>
<line x1="70" y1="40" x2="70" y2="69" stroke="#fff" stroke-width="4.2"/><path d="M70 106 V73" class="arrow"/><text x="75" y="100" class="dim">монтаж изнутри наружу</text>
<text x="25" y="83" class="t">цилиндр Ø11 × 18 мм</text><text x="25" y="90" class="t">отверстие крышки Ø11,4 мм</text><text x="25" y="97" class="t">внутренняя шайба Ø16 × 2,2 мм</text><text x="25" y="104" class="t">оптический проход Ø4,2 мм</text><text x="25" y="111" class="t">окно Ø8 мм, паз Ø8,3 мм</text><text x="25" y="118" class="t">поле зрения ≈13,3°</text><text x="25" y="128" class="small">Клей — тонким непрерывным кольцом</text><text x="25" y="133" class="small">между внутренней шайбой и крышкой.</text><text x="25" y="138" class="small">Оптический проход не заливать.</text>
<text x="211" y="28" text-anchor="middle" class="h">B. Посадка платы</text><rect x="132" y="32" width="153" height="122" rx="4" class="note"/>
<rect x="166" y="55" width="90" height="74" rx="3" class="petg" fill-opacity=".45"/><rect x="181" y="68" width="60" height="46" rx="2" class="cut"/><rect x="192" y="79" width="38" height="24" class="board"/><circle cx="198" cy="91" r="1.8" fill="#f5f6f7" stroke="#1c5f3d"/><circle cx="224" cy="91" r="1.8" fill="#f5f6f7" stroke="#1c5f3d"/>
<circle cx="198" cy="91" r="1.1" class="petg"/><circle cx="224" cy="91" r="1.1" class="petg"/><rect x="205" y="82" width="12" height="8" fill="#222"/><circle cx="211" cy="91" r="4" fill="#111"/>
<text x="145" y="140" class="t">бортик посадки: 17,1 × 17,1 мм</text><text x="145" y="146" class="t">плата: предварительно 16,5 × 16,5 мм</text><text x="145" y="152" class="t">2 конических штырька: шаг 11 мм</text><text x="145" y="158" class="t">4 опорные площадки; сторона проводов открыта</text>
<path d="M211 90 V56" class="air"/><text x="218" y="60" class="small">чувствительный элемент</text><text x="218" y="65" class="small">совмещается с осью тоннеля</text>
<rect x="12" y="166" width="273" height="31" rx="3" class="note"/><text x="17" y="174" class="t">1. Штырьки и бортик являются предварительными: до полноразмерной печати измерить реальную плату, отверстия и смещение сенсора.</text><text x="17" y="181" class="t">2. Внутренний светозащитный пояс должен быть матово-чёрным после проверки: он не должен касаться платы или перекрывать I²C-провода.</text><text x="17" y="188" class="t">3. Тоннель длиной 18 мм выбран вместо прежних ≈26 мм, чтобы расширить поле зрения при сохранении защиты от боковой засветки.</text><text x="17" y="195" class="t">4. После установки конкретного окна обязательно повторно откалибровать DAY/NIGHT через BLE.</text></svg>